<svg width="90" height="22" viewBox="0 0 90 22" fill="none" xmlns="http://www.w3.org/2000/svg">
<g id="Logo">
<path id="Union" fill-rule="evenodd" clip-rule="evenodd" d="M13.5341 0.895312L11.4365 0.333252L9.6688 6.93038L8.0729 0.974448L5.97524 1.53651L7.69951 7.97145L3.40475 3.67672L1.86918 5.21229L6.57999 9.92314L0.713426 8.35119L0.151367 10.4488L6.56132 12.1663C6.48793 11.8498 6.44911 11.52 6.44911 11.1811C6.44911 8.78239 8.39365 6.83785 10.7924 6.83785C13.1911 6.83785 15.1356 8.78239 15.1356 11.1811C15.1356 11.5178 15.0973 11.8456 15.0248 12.1603L20.8503 13.7212L21.4123 11.6236L14.9769 9.89919L20.8438 8.32713L20.2817 6.22952L13.8466 7.9538L18.1413 3.65909L16.6057 2.12351L11.9603 6.76899L13.5341 0.895312ZM26.2632 15.2823H32.6376V13.3623H28.5288V6.13029H26.2632V15.2823ZM36.4145 14.0023C35.5057 14.0023 35.0321 13.2087 35.0321 12.0183C35.0321 10.8279 35.5057 10.0215 36.4145 10.0215C37.3233 10.0215 37.8097 10.8279 37.8097 12.0183C37.8097 13.2087 37.3233 14.0023 36.4145 14.0023ZM36.4273 15.4871C38.5393 15.4871 39.9217 13.9895 39.9217 12.0183C39.9217 10.0471 38.5393 8.54948 36.4273 8.54948C34.328 8.54948 32.92 10.0471 32.92 12.0183C32.92 13.9895 34.328 15.4871 36.4273 15.4871ZM45.984 16.8183C45.408 17.3303 44.5504 17.5479 43.5776 17.5479C41.7728 17.5479 40.5824 16.8055 40.3776 15.4359H42.4C42.5152 15.7815 42.8608 16.0759 43.552 16.0759C44.4352 16.0759 44.8064 15.6151 44.8064 14.8215V14.1687H44.7552C44.3712 14.6039 43.872 14.9239 43.0784 14.9239C41.6064 14.9239 40.2368 13.8231 40.2368 11.8135C40.2368 9.89351 41.3632 8.5367 42.9888 8.5367C43.8592 8.5367 44.448 8.8823 44.832 9.43271H44.8576V8.7287H46.8544V14.6423C46.8544 15.6279 46.5088 16.3447 45.984 16.8183ZM42.272 11.7495C42.272 12.7351 42.784 13.3751 43.5648 13.3751C44.4736 13.3751 44.896 12.6583 44.896 11.7367C44.896 10.8535 44.4352 10.1111 43.5648 10.1111C42.784 10.1111 42.272 10.7511 42.272 11.7495ZM50.9598 14.0023C50.051 14.0023 49.5774 13.2087 49.5774 12.0183C49.5774 10.8279 50.051 10.0215 50.9598 10.0215C51.8686 10.0215 52.355 10.8279 52.355 12.0183C52.355 13.2087 51.8686 14.0023 50.9598 14.0023ZM50.9726 15.4871C53.0846 15.4871 54.4667 13.9895 54.4667 12.0183C54.4667 10.0471 53.0846 8.54948 50.9726 8.54948C48.8734 8.54948 47.4654 10.0471 47.4654 12.0183C47.4654 13.9895 48.8734 15.4871 50.9726 15.4871ZM57.1631 15.2823H55.0767V8.7287H57.1631V15.2823ZM57.1631 7.8199H55.0767V6.13029H57.1631V7.8199ZM58.0682 17.4455H60.1546V14.6039H60.1802C60.5898 15.1543 61.1914 15.4871 62.0362 15.4871C63.7514 15.4871 64.8906 14.1303 64.8906 12.0055C64.8906 10.0343 63.8282 8.5367 62.0874 8.5367C61.1914 8.5367 60.5514 8.9335 60.1034 9.52231H60.065V8.7287H58.0682V17.4455ZM61.4986 13.8743C60.6026 13.8743 60.0906 13.1447 60.0906 12.0823C60.0906 11.0199 60.5514 10.2135 61.4602 10.2135C62.3562 10.2135 62.7786 10.9559 62.7786 12.0823C62.7786 13.1959 62.2922 13.8743 61.4986 13.8743ZM71.2698 13.3111C71.2698 14.7447 70.0026 15.4871 68.2874 15.4871C66.3674 15.4871 65.1642 14.6039 65.1002 13.1575H67.0714C67.1482 13.8103 67.5834 14.1303 68.2746 14.1303C68.9018 14.1303 69.2986 13.8999 69.2986 13.4775C69.2986 12.9503 68.6622 12.8438 67.9042 12.7171C67.8157 12.7023 67.7256 12.6872 67.6346 12.6711C66.4954 12.4791 65.2794 12.1719 65.2794 10.6359C65.2794 9.25351 66.5594 8.5367 68.1082 8.5367C69.9642 8.5367 70.9626 9.34311 71.065 10.6359H69.145C69.0682 10.0471 68.6714 9.86791 68.0954 9.86791C67.5834 9.86791 67.1866 10.0599 67.1866 10.4695C67.1866 10.8734 67.757 10.9725 68.4582 11.0942L68.4582 11.0942C68.557 11.1114 68.6583 11.129 68.761 11.1479C69.913 11.3399 71.2698 11.6343 71.2698 13.3111ZM74.1039 15.4743C75.0127 15.4743 75.5887 15.1159 76.0623 14.4759H76.1007V15.2823H78.0975V8.72868H76.0111V12.3895C76.0111 13.1703 75.5759 13.7079 74.8591 13.7079C74.1935 13.7079 73.8735 13.3111 73.8735 12.5943V8.72868H71.7999V13.0295C71.7999 14.4887 72.5935 15.4743 74.1039 15.4743ZM81.0917 15.2823H79.0053V8.7287H81.0021V9.66311H81.0405C81.4501 8.98471 82.0773 8.5367 83.0245 8.5367C83.8821 8.5367 84.535 8.9847 84.8678 9.68871H84.8933C85.4054 8.8951 86.1094 8.5367 86.9542 8.5367C88.439 8.5367 89.1814 9.54791 89.1814 11.0199V15.2823H87.095V11.3911C87.095 10.6871 86.8006 10.2775 86.1734 10.2775C85.5078 10.2775 85.1366 10.8279 85.1366 11.6087V15.2823H83.0501V11.3911C83.0501 10.6871 82.7558 10.2775 82.1285 10.2775C81.4757 10.2775 81.0917 10.8279 81.0917 11.6087V15.2823ZM13.9388 14.1753C14.4598 13.628 14.8394 12.945 15.0193 12.1847L19.6947 16.86L18.1591 18.3956L13.9388 14.1753ZM13.8958 14.2194C13.3686 14.7579 12.7023 15.1598 11.9551 15.3669L13.4908 21.0981L15.5884 20.536L13.8958 14.2194ZM10.7922 15.5243C11.1667 15.5243 11.53 15.4769 11.8767 15.3878L10.1943 21.6666L8.09668 21.1045L9.63375 15.3681C10.0026 15.4699 10.391 15.5243 10.7922 15.5243ZM9.55976 15.347C8.82397 15.1296 8.16952 14.7226 7.65304 14.1825L3.42236 18.4132L4.95794 19.9488L9.55976 15.347ZM6.56413 12.1791C6.74013 12.9277 7.10989 13.6016 7.61752 14.1451L1.2817 15.8428L0.719645 13.7452L6.56413 12.1791Z" fill="white"/>
</g>
</svg>
