<svg width="25" height="24" viewBox="0 0 25 24" fill="none" xmlns="http://www.w3.org/2000/svg">
<g id="book-open">
<path id="Vector" d="M2.33344 3.00012H8.33343C9.3943 3.00012 10.4117 3.42155 11.1619 4.17169C11.912 4.92184 12.3334 5.93926 12.3334 7.00012V21.0001C12.3334 20.2045 12.0174 19.4414 11.4548 18.8788C10.8921 18.3162 10.1291 18.0001 9.33343 18.0001H2.33344V3.00012Z" stroke="#245D00" stroke-width="2" stroke-linecap="round" stroke-linejoin="round"/>
<path id="Vector_2" d="M22.3334 3.00012H16.3334C15.2726 3.00012 14.2552 3.42155 13.505 4.17169C12.7549 4.92184 12.3334 5.93926 12.3334 7.00012V21.0001C12.3334 20.2045 12.6495 19.4414 13.2121 18.8788C13.7747 18.3162 14.5378 18.0001 15.3334 18.0001H22.3334V3.00012Z" stroke="#245D00" stroke-width="2" stroke-linecap="round" stroke-linejoin="round"/>
</g>
</svg>
