<svg width="24" height="24" viewBox="0 0 24 24" fill="none" xmlns="http://www.w3.org/2000/svg">
<g id="codesandbox">
<path id="Vector" d="M21.0001 15.9999V7.9999C20.9997 7.64918 20.9071 7.30471 20.7316 7.00106C20.5561 6.69742 20.3038 6.44526 20.0001 6.2699L13.0001 2.2699C12.696 2.09437 12.3511 2.00195 12.0001 2.00195C11.649 2.00195 11.3041 2.09437 11.0001 2.2699L4.00006 6.2699C3.69632 6.44526 3.44404 6.69742 3.26852 7.00106C3.093 7.30471 3.00042 7.64918 3.00006 7.9999V15.9999C3.00042 16.3506 3.093 16.6951 3.26852 16.9987C3.44404 17.3024 3.69632 17.5545 4.00006 17.7299L11.0001 21.7299C11.3041 21.9054 11.649 21.9979 12.0001 21.9979C12.3511 21.9979 12.696 21.9054 13.0001 21.7299L20.0001 17.7299C20.3038 17.5545 20.5561 17.3024 20.7316 16.9987C20.9071 16.6951 20.9997 16.3506 21.0001 15.9999Z" stroke="#245D00" stroke-width="2" stroke-linecap="round" stroke-linejoin="round"/>
<path id="Vector_2" d="M7.50006 4.20996L12.0001 6.80996L16.5001 4.20996" stroke="#245D00" stroke-width="2" stroke-linecap="round" stroke-linejoin="round"/>
<path id="Vector_3" d="M7.50006 19.79V14.6L3.00006 12" stroke="#245D00" stroke-width="2" stroke-linecap="round" stroke-linejoin="round"/>
<path id="Vector_4" d="M21.0001 12L16.5001 14.6V19.79" stroke="#245D00" stroke-width="2" stroke-linecap="round" stroke-linejoin="round"/>
<path id="Vector_5" d="M3.26959 6.95996L11.9996 12.01L20.7296 6.95996" stroke="#245D00" stroke-width="2" stroke-linecap="round" stroke-linejoin="round"/>
<path id="Vector_6" d="M12.0001 22.08V12" stroke="#245D00" stroke-width="2" stroke-linecap="round" stroke-linejoin="round"/>
</g>
</svg>
