<svg width="1964" height="429" viewBox="0 0 1964 429" fill="none" xmlns="http://www.w3.org/2000/svg">
<path fill-rule="evenodd" clip-rule="evenodd" d="M330.753 -0.00010601L330.753 286.086C330.753 310.728 310.777 330.753 286.086 330.753L0 330.753L-2.54948e-06 272.428L192.693 272.428L25.4096 175.847L54.5723 125.335L221.944 221.968L125.308 54.5893L175.82 25.4267L272.428 192.757L272.428 -0.000103461L330.753 -0.00010601Z" fill="#245D00"/>
<path fill-rule="evenodd" clip-rule="evenodd" d="M405.654 1.8667V330.11H566.855V271.935H466.485V1.8667H405.654ZM599.777 330.11V84.0361H658.869V330.11H599.777ZM599.777 57.3866V1.8667H658.869V57.3866H599.777ZM954.619 330.11V84.0361H1013.71V330.11H954.619ZM954.619 57.3866V1.8667H1013.71V57.3866H954.619ZM1629.26 1.8667V330.11H1690.09V1.8667H1629.26ZM1753.34 1.8667V330.11H1814.17V205.311H1833.72C1878.62 205.311 1899.48 201.738 1917.24 191.986C1945.68 176.006 1963.01 142.26 1963.01 103.154C1963.01 66.2697 1947.9 35.6614 1921.25 18.764C1901.7 6.30829 1879.06 1.8667 1834.64 1.8667H1753.34ZM1831.94 147.136H1814.17V60.0901H1834.59C1853.66 60.0901 1863.46 60.9591 1873.21 63.1799C1890.98 68.1043 1901.65 83.6499 1901.65 104.506C1901.65 144.915 1862.16 147.136 1831.94 147.136ZM1319.71 350.098H1386.72C1404.05 369.216 1420.9 376.313 1448.46 376.313C1492.44 376.313 1517.31 351.016 1517.31 305.682V297.668C1494.23 324.752 1471.11 335.856 1436.49 335.856C1366.29 335.856 1315.7 281.205 1315.7 205.264C1315.7 129.322 1367.21 78.2442 1436.97 78.2442C1472.51 78.2442 1498.72 90.2171 1517.36 115.129V84.0375H1573.74V283.475C1573.74 378.969 1530.2 428.261 1446.29 428.261C1386.33 428.261 1339.69 399.825 1319.71 350.098ZM1444.46 281.688C1487.09 281.688 1514.65 252.383 1514.65 207.05C1514.65 161.717 1485.78 132.412 1442.72 132.412C1402.31 132.412 1375.23 162.634 1375.23 207.919C1375.23 253.204 1402.31 281.64 1444.5 281.64L1444.46 281.688ZM1061.75 84.0369V330.111H1120.85V214.195C1120.85 157.323 1136.83 132.46 1174.15 132.46C1207.89 132.46 1221.22 154.668 1221.22 209.753V330.111H1280.31V198.215C1280.31 115.611 1250.96 78.2918 1185.68 78.2918C1157.25 78.2918 1138.18 86.2577 1116.4 107.597V84.0369H1061.75ZM684.263 84.0363L783.33 330.11H830.401L929.468 84.0363H862.844L806.89 247.023L750.018 84.0363H684.263Z" fill="#002500"/>
</svg>
