<svg width="16" height="16" viewBox="0 0 16 16" fill="none" xmlns="http://www.w3.org/2000/svg">
<g id="edit-04">
<path id="Icon" d="M14 12.0001L13.3332 12.7294C12.9796 13.1162 12.5001 13.3334 12.0001 13.3334C11.5001 13.3334 11.0205 13.1162 10.6669 12.7294C10.3128 12.3435 9.83332 12.1268 9.33345 12.1268C8.83359 12.1268 8.35409 12.3435 7.99998 12.7294M2 13.3334H3.11636C3.44248 13.3334 3.60554 13.3334 3.75899 13.2966C3.89504 13.2639 4.0251 13.21 4.1444 13.1369C4.27895 13.0545 4.39425 12.9392 4.62486 12.7086L13 4.3334C13.5523 3.78112 13.5523 2.88569 13 2.3334C12.4477 1.78112 11.5523 1.78112 11 2.3334L2.62484 10.7086C2.39424 10.9392 2.27894 11.0545 2.19648 11.189C2.12338 11.3083 2.0695 11.4384 2.03684 11.5744C2 11.7279 2 11.8909 2 12.2171V13.3334Z" stroke="#457526" stroke-width="1.33333" stroke-linecap="round" stroke-linejoin="round"/>
</g>
</svg>
